<svg version="1.0" preserveAspectRatio="xMidYMid meet" height="80" viewBox="0 0 300 60" zoomAndPan="magnify" width="400" xmlns:xlink="http://www.w3.org/1999/xlink" xmlns="http://www.w3.org/2000/svg"><defs><g></g></defs><g fill-opacity="1" fill="#000000"><g transform="translate(1.532169, 45.851612)"><g><path d="M 35.296875 -25.605469 C 31.378906 -25.605469 27.867188 -23.195312 26.359375 -19.832031 C 25.304688 -23.246094 22.191406 -25.605469 18.328125 -25.605469 C 14.710938 -25.605469 11.398438 -23.546875 9.742188 -20.585938 L 9.742188 -25.355469 L 3.765625 -24.152344 L 3.765625 0 L 9.742188 0 L 9.742188 -18.628906 C 10.945312 -21.488281 13.554688 -23.546875 16.167969 -23.546875 C 18.828125 -23.546875 20.785156 -21.4375 20.785156 -18.578125 L 20.785156 0 L 26.761719 0 L 26.761719 -17.171875 C 26.761719 -17.574219 26.761719 -17.925781 26.710938 -18.328125 C 27.867188 -21.339844 30.476562 -23.546875 33.1875 -23.546875 C 35.800781 -23.546875 37.757812 -21.4375 37.757812 -18.578125 L 37.757812 0 L 43.730469 0 L 43.730469 -17.171875 C 43.730469 -21.992188 40.117188 -25.605469 35.296875 -25.605469 Z M 35.296875 -25.605469"></path></g></g></g><g fill-opacity="1" fill="#000000"><g transform="translate(48.573751, 45.851612)"><g><path d="M 14.210938 -25.605469 C 8.433594 -25.605469 3.816406 -22.996094 3.816406 -19.582031 C 3.816406 -17.875 5.171875 -16.570312 6.980469 -16.570312 C 8.636719 -16.570312 9.941406 -17.875 9.941406 -19.582031 C 9.941406 -21.1875 8.785156 -22.445312 7.28125 -22.59375 C 8.585938 -23.75 10.644531 -24.453125 12.855469 -24.453125 C 17.222656 -24.453125 19.984375 -21.839844 19.984375 -18.125 L 19.984375 -12.25 C 18.476562 -13.203125 15.414062 -13.859375 12.550781 -13.859375 C 6.375 -13.859375 2.007812 -10.746094 2.007812 -6.578125 C 2.007812 -2.5625 5.925781 0.503906 10.796875 0.503906 C 14.410156 0.503906 18.023438 -1.15625 19.984375 -3.613281 L 19.984375 0 L 25.957031 0 L 25.957031 -16.570312 C 25.957031 -21.691406 21.085938 -25.605469 14.210938 -25.605469 Z M 13.507812 -1.65625 C 10.292969 -1.65625 8.183594 -3.867188 8.183594 -7.027344 C 8.183594 -10.445312 10.542969 -12.550781 14.609375 -12.550781 C 16.769531 -12.550781 18.878906 -12 19.984375 -11.097656 L 19.984375 -5.070312 C 18.527344 -3.011719 16.066406 -1.65625 13.507812 -1.65625 Z M 13.507812 -1.65625"></path></g></g></g><g fill-opacity="1" fill="#000000"><g transform="translate(77.842953, 45.851612)"><g><path d="M 17.824219 -3.566406 C 17.320312 -2.160156 15.613281 -1.105469 13.957031 -1.105469 C 11.898438 -1.105469 10.394531 -2.761719 10.394531 -5.019531 L 10.394531 -24.101562 L 17.421875 -24.101562 L 17.421875 -25.105469 L 10.394531 -25.105469 L 10.394531 -32.082031 L 4.417969 -30.675781 L 4.417969 -25.105469 L 1.304688 -25.105469 L 1.304688 -24.101562 L 4.417969 -24.101562 L 4.417969 -6.023438 C 4.417969 -2.308594 7.632812 0.503906 11.949219 0.503906 C 15.113281 0.503906 18.074219 -1.054688 18.628906 -3.113281 Z M 17.824219 -3.566406"></path></g></g></g><g fill-opacity="1" fill="#000000"><g transform="translate(97.021062, 45.851612)"><g><path d="M 24 -9.238281 C 22.191406 -9.238281 20.886719 -7.933594 20.886719 -6.226562 C 20.886719 -4.46875 22.191406 -3.214844 23.949219 -3.214844 L 24.152344 -3.214844 C 22.84375 -1.757812 20.535156 -0.855469 17.875 -0.855469 C 11.847656 -0.855469 8.285156 -5.171875 8.285156 -13.203125 L 8.285156 -13.40625 L 27.414062 -13.40625 C 27.414062 -20.335938 22.394531 -25.605469 15.261719 -25.605469 C 7.933594 -25.605469 2.109375 -20.035156 2.109375 -12.601562 C 2.109375 -5.171875 7.933594 0.503906 16.21875 0.503906 C 22.09375 0.503906 26.960938 -2.410156 26.960938 -6.226562 C 26.960938 -7.933594 25.707031 -9.238281 24 -9.238281 Z M 15.214844 -24.601562 C 19.027344 -24.601562 21.488281 -20.738281 21.640625 -14.410156 L 8.335938 -14.410156 C 8.636719 -20.386719 11.246094 -24.601562 15.214844 -24.601562 Z M 15.214844 -24.601562"></path></g></g></g><g fill-opacity="1" fill="#000000"><g transform="translate(126.491089, 45.851612)"><g><path d="M 16.96875 -25.605469 C 13.808594 -25.605469 11.097656 -23.597656 9.742188 -20.535156 L 9.742188 -25.355469 L 3.765625 -24.152344 L 3.765625 0 L 9.742188 0 L 9.742188 -18.375 C 10.84375 -22.09375 13.605469 -24.503906 16.769531 -24.503906 C 17.925781 -24.503906 18.878906 -24.199219 19.582031 -23.648438 C 17.875 -23.546875 16.621094 -22.292969 16.621094 -20.636719 C 16.621094 -18.929688 17.976562 -17.625 19.78125 -17.625 C 21.4375 -17.625 22.695312 -18.929688 22.695312 -20.636719 C 22.695312 -23.496094 20.433594 -25.605469 16.96875 -25.605469 Z M 16.96875 -25.605469"></path></g></g></g><g fill-opacity="1" fill="#000000"><g transform="translate(150.036978, 45.851612)"><g><path d="M 18.929688 -25.605469 C 15.011719 -25.605469 11.496094 -23.546875 9.742188 -20.585938 L 9.742188 -25.355469 L 3.765625 -24.152344 L 3.765625 0 L 9.742188 0 L 9.742188 -18.679688 C 11.046875 -21.589844 13.90625 -23.597656 16.769531 -23.597656 C 19.683594 -23.597656 21.789062 -21.4375 21.789062 -18.578125 L 21.789062 0 L 27.765625 0 L 27.765625 -17.171875 C 27.765625 -21.992188 24.050781 -25.605469 18.929688 -25.605469 Z M 18.929688 -25.605469"></path></g></g></g><g fill-opacity="1" fill="#000000"><g transform="translate(181.113549, 45.851612)"><g><path d="M 6.929688 -29.019531 C 8.835938 -29.019531 10.242188 -30.476562 10.242188 -32.433594 C 10.242188 -34.394531 8.835938 -35.800781 6.929688 -35.800781 C 4.921875 -35.800781 3.414062 -34.394531 3.414062 -32.433594 C 3.414062 -30.476562 4.921875 -29.019531 6.929688 -29.019531 Z M 3.867188 0 L 9.839844 0 L 9.839844 -25.355469 L 3.867188 -24.152344 Z M 3.867188 0"></path></g></g></g><g fill-opacity="1" fill="#000000"><g transform="translate(194.769169, 45.851612)"><g><path d="M 22.042969 -24.152344 L 22.042969 -21.238281 C 20.234375 -23.898438 17.070312 -25.605469 13.554688 -25.605469 C 7.230469 -25.605469 2.109375 -19.984375 2.109375 -12.550781 C 2.109375 -5.121094 7.179688 0.503906 13.65625 0.503906 C 17.070312 0.503906 20.132812 -1.054688 22.042969 -3.515625 L 22.042969 11.046875 L 28.015625 11.046875 L 28.015625 -25.355469 Z M 15.613281 -1.304688 C 11.195312 -1.304688 8.285156 -5.773438 8.285156 -12.550781 C 8.285156 -19.28125 11.195312 -23.800781 15.464844 -23.800781 C 18.175781 -23.800781 20.585938 -22.042969 22.042969 -19.179688 L 22.042969 -5.625 C 20.636719 -2.960938 18.277344 -1.304688 15.613281 -1.304688 Z M 15.613281 -1.304688"></path></g></g></g><g fill-opacity="1" fill="#000000"><g transform="translate(226.598797, 45.851612)"><g><path d="M 21.085938 -24.152344 L 21.085938 -6.527344 C 19.832031 -3.566406 17.019531 -1.554688 14.257812 -1.554688 C 11.398438 -1.554688 9.339844 -3.664062 9.339844 -6.527344 L 9.339844 -25.355469 L 3.363281 -24.152344 L 3.363281 -7.933594 C 3.363281 -3.113281 7.128906 0.503906 12.152344 0.503906 C 15.867188 0.503906 19.378906 -1.554688 21.085938 -4.570312 L 21.085938 0 L 27.0625 0 L 27.0625 -25.355469 Z M 21.085938 -24.152344"></path></g></g></g><g fill-opacity="1" fill="#000000"><g transform="translate(257.474554, 45.851612)"><g><path d="M 24 -9.238281 C 22.191406 -9.238281 20.886719 -7.933594 20.886719 -6.226562 C 20.886719 -4.46875 22.191406 -3.214844 23.949219 -3.214844 L 24.152344 -3.214844 C 22.84375 -1.757812 20.535156 -0.855469 17.875 -0.855469 C 11.847656 -0.855469 8.285156 -5.171875 8.285156 -13.203125 L 8.285156 -13.40625 L 27.414062 -13.40625 C 27.414062 -20.335938 22.394531 -25.605469 15.261719 -25.605469 C 7.933594 -25.605469 2.109375 -20.035156 2.109375 -12.601562 C 2.109375 -5.171875 7.933594 0.503906 16.21875 0.503906 C 22.09375 0.503906 26.960938 -2.410156 26.960938 -6.226562 C 26.960938 -7.933594 25.707031 -9.238281 24 -9.238281 Z M 15.214844 -24.601562 C 19.027344 -24.601562 21.488281 -20.738281 21.640625 -14.410156 L 8.335938 -14.410156 C 8.636719 -20.386719 11.246094 -24.601562 15.214844 -24.601562 Z M 15.214844 -24.601562"></path></g></g></g><g fill-opacity="1" fill="#000000"><g transform="translate(286.944592, 45.851612)"><g><path d="M 5.722656 0.25 C 7.882812 0.25 9.488281 -1.355469 9.488281 -3.515625 C 9.488281 -5.625 7.882812 -7.332031 5.722656 -7.332031 C 3.566406 -7.332031 1.90625 -5.625 1.90625 -3.515625 C 1.90625 -1.355469 3.566406 0.25 5.722656 0.25 Z M 5.722656 0.25"></path></g></g></g></svg>